<svg width="18" height="18" viewBox="0 0 8 8" fill="none" xmlns="http://www.w3.org/2000/svg">
    <path d="M4.00003 4.83127L1.41386 7.42397C1.2942 7.54273 1.15455 7.6021 0.994866 7.6021C0.835226 7.6021 0.695616 7.54273 0.576074 7.42397C0.457324 7.30522 0.397949 7.16668 0.397949 7.00835C0.397949 6.85002 0.457324 6.71147 0.576074 6.59272L3.16878 4.00002L0.576074 1.43363C0.457324 1.31397 0.397949 1.17428 0.397949 1.01464C0.397949 0.855002 0.457324 0.715391 0.576074 0.59585C0.694824 0.4771 0.833366 0.417725 0.991699 0.417725C1.15003 0.417725 1.28857 0.4771 1.40732 0.59585L4.00003 3.18856L6.56642 0.59585C6.6729 0.4771 6.80926 0.417725 6.97551 0.417725C7.14176 0.417725 7.28466 0.4771 7.4042 0.59585C7.52295 0.7146 7.58232 0.853141 7.58232 1.01147C7.58232 1.16981 7.52295 1.30835 7.4042 1.4271L4.81149 4.00002L7.4042 6.58619C7.52295 6.70585 7.58232 6.84554 7.58232 7.00518C7.58232 7.16482 7.52295 7.30443 7.4042 7.42397C7.28545 7.54273 7.14691 7.6021 6.98857 7.6021C6.83024 7.6021 6.6917 7.54273 6.57295 7.42397L4.00003 4.83127Z" fill="#9282FA"/>
    </svg>
    