<svg width="20" height="16" viewBox="0 0 20 16" fill="none" xmlns="http://www.w3.org/2000/svg">
    <path fill-rule="evenodd" clip-rule="evenodd" d="M6.42857 0.142822C5.72096 0.142822 5.16776 0.573037 4.8241 1.08852C4.47711 1.60899 4.28571 2.28688 4.28571 2.99997C4.28571 3.71305 4.47711 4.39094 4.8241 4.91141C5.16776 5.42689 5.72096 5.85711 6.42857 5.85711C7.13619 5.85711 7.68939 5.42689 8.03304 4.91141C8.38003 4.39094 8.57143 3.71305 8.57143 2.99997C8.57143 2.28688 8.38003 1.60899 8.03304 1.08852C7.68939 0.573037 7.13619 0.142822 6.42857 0.142822ZM13.5714 0.142822C12.8638 0.142822 12.3106 0.573037 11.967 1.08852C11.62 1.60899 11.4286 2.28688 11.4286 2.99997C11.4286 3.71305 11.62 4.39094 11.967 4.91141C12.3106 5.42689 12.8638 5.85711 13.5714 5.85711C14.279 5.85711 14.8323 5.42689 15.1759 4.91141C15.5229 4.39094 15.7143 3.71305 15.7143 2.99997C15.7143 2.28688 15.5229 1.60899 15.1759 1.08852C14.8323 0.573037 14.279 0.142822 13.5714 0.142822ZM2.14286 6.57139C1.43524 6.57139 0.882039 7.00161 0.538383 7.51709C0.191399 8.03757 0 8.71545 0 9.42854C0 10.1416 0.191399 10.8195 0.538383 11.34C0.882039 11.8555 1.43524 12.2857 2.14286 12.2857C2.85047 12.2857 3.40367 11.8555 3.74733 11.34C4.09431 10.8195 4.28571 10.1416 4.28571 9.42854C4.28571 8.71545 4.09431 8.03757 3.74733 7.51709C3.40367 7.00161 2.85047 6.57139 2.14286 6.57139ZM10 6.57139C8.2845 6.57139 7.01606 7.49096 6.20377 8.63221C5.40271 9.75771 5 11.1527 5 12.2857C5 13.6058 5.79326 14.5235 6.7655 15.0748C7.72334 15.6181 8.92369 15.8571 10 15.8571C11.0763 15.8571 12.2767 15.6181 13.2345 15.0748C14.2067 14.5235 15 13.6058 15 12.2857C15 11.1527 14.5973 9.75771 13.7962 8.63221C12.9839 7.49096 11.7155 6.57139 10 6.57139ZM17.8571 6.57139C17.1496 6.57139 16.5963 7.00161 16.2527 7.51709C15.9057 8.03757 15.7143 8.71545 15.7143 9.42854C15.7143 10.1416 15.9057 10.8195 16.2527 11.34C16.5963 11.8555 17.1496 12.2857 17.8571 12.2857C18.5647 12.2857 19.118 11.8555 19.4616 11.34C19.8086 10.8195 20 10.1416 20 9.42854C20 8.71545 19.8086 8.03757 19.4616 7.51709C19.118 7.00161 18.5647 6.57139 17.8571 6.57139Z" fill="#9282FA"/>
    </svg>
    