<svg width="20" height="18" viewBox="0 0 20 18" fill="none" xmlns="http://www.w3.org/2000/svg">
    <path d="M9.03038 10.0318C5.98318 7.00189 7.0866 5.88579 7.09349 5.87891L2.91547 10.0569C3.60461 11.0958 4.50252 12.2106 5.67078 13.3724C6.84981 14.5446 8.00921 15.4148 9.10725 16.0575L13.2071 11.9577C13.2071 11.9577 12.0872 13.0713 9.03038 10.0318Z" fill="#9282FA" fill-opacity="0.4"/>
    <path fill-rule="evenodd" clip-rule="evenodd" d="M13.2075 11.9575L13.6787 11.4891C14.3299 10.8414 15.3452 10.7084 16.1785 11.1614L18.1548 12.2358C19.424 12.9256 19.7037 14.6165 18.7117 15.6029L17.2422 17.0639C16.8686 17.4355 16.405 17.707 15.8718 17.7567C14.6385 17.8717 12.1012 17.8097 9.1077 16.0573L13.2075 11.9575ZM7.09394 5.87863L7.39058 5.58365C8.12152 4.8569 8.1904 3.69015 7.55271 2.83831L6.24828 1.09593C5.45907 0.0416704 3.93392 -0.0975837 3.02936 0.801908L1.40565 2.41635C0.957097 2.8623 0.656501 3.44045 0.692997 4.08186C0.759892 5.25994 1.1615 7.41201 2.91584 10.0567L7.09394 5.87863Z" fill="#9282FA"/>
    </svg>
    