<svg width="48" height="48" viewBox="0 0 48 48" fill="none" xmlns="http://www.w3.org/2000/svg">
<path d="M37.215 14.1875V20.375C37.215 20.6485 37.1063 20.9108 36.913 21.1042C36.7196 21.2976 36.4573 21.4063 36.1837 21.4063H29.9962C29.7227 21.4063 29.4604 21.2976 29.267 21.1042C29.0736 20.9108 28.965 20.6485 28.965 20.375C28.965 20.1015 29.0736 19.8392 29.267 19.6458C29.4604 19.4524 29.7227 19.3438 29.9962 19.3438H33.6946L31.8087 17.4579C29.892 15.5325 27.2898 14.4463 24.5732 14.4376H24.5152C21.8212 14.4313 19.2331 15.4857 17.3106 17.3728C17.1136 17.5566 16.8526 17.6561 16.5832 17.6499C16.3139 17.6437 16.0576 17.5324 15.8693 17.3397C15.681 17.147 15.5756 16.8883 15.5756 16.6189C15.5756 16.3495 15.6811 16.0908 15.8694 15.8981C18.1994 13.6208 21.3335 12.3543 24.5915 12.3734C27.8495 12.3924 30.9685 13.6955 33.2718 15.9999L35.1525 17.8858V14.1875C35.1525 13.914 35.2611 13.6517 35.4545 13.4583C35.6479 13.2649 35.9102 13.1563 36.1837 13.1563C36.4573 13.1563 36.7196 13.2649 36.913 13.4583C37.1063 13.6517 37.215 13.914 37.215 14.1875ZM32.3694 31.6272C30.4279 33.5237 27.8169 34.5784 25.1029 34.5625C22.3888 34.5466 19.7905 33.4613 17.8713 31.5422L15.9854 29.6563H19.6837C19.9573 29.6563 20.2196 29.5476 20.413 29.3542C20.6063 29.1608 20.715 28.8985 20.715 28.625C20.715 28.3515 20.6063 28.0892 20.413 27.8958C20.2196 27.7024 19.9573 27.5938 19.6837 27.5938H13.4962C13.2227 27.5938 12.9604 27.7024 12.767 27.8958C12.5736 28.0892 12.465 28.3515 12.465 28.625V34.8125C12.465 35.086 12.5736 35.3483 12.767 35.5417C12.9604 35.7351 13.2227 35.8438 13.4962 35.8438C13.7698 35.8438 14.0321 35.7351 14.2255 35.5417C14.4188 35.3483 14.5275 35.086 14.5275 34.8125V31.1142L16.4134 33.0001C18.7134 35.3116 21.837 36.6154 25.0978 36.6249H25.1661C28.3992 36.6333 31.5054 35.3675 33.8119 33.1019C34.0002 32.9093 34.1056 32.6505 34.1057 32.3811C34.1057 32.1117 34.0003 31.853 33.8119 31.6603C33.6236 31.4676 33.3674 31.3563 33.0981 31.3501C32.8287 31.3439 32.5676 31.4434 32.3707 31.6272H32.3694Z" fill="#323238"/>
<path d="M24 48C20.6 48 17.44 47.39 14.52 46.17C11.6 44.95 9.06 43.26 6.9 41.1C4.74 38.94 3.05 36.4 1.83 33.48C0.610001 30.56 9.53674e-07 27.4 9.53674e-07 24C9.53674e-07 20.64 0.610001 17.5 1.83 14.58C3.05 11.66 4.74 9.12 6.9 6.96C9.06 4.8 11.6 3.1 14.52 1.86C17.44 0.62 20.6 0 24 0C27.36 0 30.5 0.62 33.42 1.86C36.34 3.1 38.88 4.8 41.04 6.96C43.2 9.12 44.9 11.66 46.14 14.58C47.38 17.5 48 20.64 48 24C48 27.4 47.38 30.56 46.14 33.48C44.9 36.4 43.2 38.94 41.04 41.1C38.88 43.26 36.34 44.95 33.42 46.17C30.5 47.39 27.36 48 24 48ZM24 44.4C29.8 44.4 34.65 42.45 38.55 38.55C42.45 34.65 44.4 29.8 44.4 24C44.4 18.2 42.45 13.35 38.55 9.45C34.65 5.55 29.8 3.6 24 3.6C18.2 3.6 13.35 5.55 9.45 9.45C5.55 13.35 3.6 18.2 3.6 24C3.6 29.8 5.55 34.65 9.45 38.55C13.35 42.45 18.2 44.4 24 44.4Z" fill="#323238"/>
</svg>
